# xmcd
#
# Track frame offsets:
#	150
#	18088
#	35129
#	54603
#	69028
#	85757
#	101116
#	115906
#	131657
#	146639
#	162818
#
# Disc length: 2381 seconds
#
# Revision: 1
# Processed by: cddbd v1.5.2PL0 Copyright (c) Steve Scherf et al.
# Submitted via: audiograbber 1.83.01
#
DISCID=8f094b0b
DTITLE=Steffen Jakobsen - Six String Love Affair
DYEAR=2013
DGENRE=Country
TTITLE0=What She Wants
TTITLE1=Six String Love Affair
TTITLE2=Hold Your Horses
TTITLE3=Go Fishing
TTITLE4=First We Take Manhattan
TTITLE5=Set In Stone
TTITLE6=Smiling Faces
TTITLE7=Lair
TTITLE8=T.I.M.E.
TTITLE9=Close The Door
TTITLE10=Your Man
EXTD=
EXTT0=
EXTT1=
EXTT2=
EXTT3=
EXTT4=
EXTT5=
EXTT6=
EXTT7=
EXTT8=
EXTT9=
EXTT10=
PLAYORDER=
